Coordinates
version=1
nRows=17
nColumns=38
inDegrees=no

Units are S.I. units (second, meters, Newtons, ...)
If the header above contains a line with 'inDegrees', this indicates whether rotational values are in degrees (yes) or radians (no).

endheader
time	pelvis_tilt	pelvis_list	pelvis_rotation	pelvis_tx	pelvis_ty	pelvis_tz	hip_flexion_r	hip_adduction_r	hip_rotation_r	knee_angle_r	ankle_angle_r	subtalar_angle_r	mtp_angle_r	hip_flexion_l	hip_adduction_l	hip_rotation_l	knee_angle_l	ankle_angle_l	subtalar_angle_l	mtp_angle_l	lumbar_extension	lumbar_bending	lumbar_rotation	arm_flex_r	arm_add_r	arm_rot_r	elbow_flex_r	pro_sup_r	wrist_flex_r	wrist_dev_r	arm_flex_l	arm_add_l	arm_rot_l	elbow_flex_l	pro_sup_l	wrist_flex_l	wrist_dev_l
70	3.05118	1.48718	-1.43384	0.559663	1.43767	1.0829	-0.0248618	-0.034696	0.00327983	0.271655	-0.366492	0	0	-0.153047	-0.0156211	-0.141354	0.319437	-0.173489	0	0	-0.146376	-0.0740503	-0.0432912	0.419241	-0.220307	0.289581	1.17077	1.00066	0	0	-0.0643157	-0.389622	0.193	1.79738	1.5708	0	0
70.01	2.98389	1.4799	-1.36455	0.559996	1.43796	1.08443	-0.0895011	-0.0274309	-0.0898197	0.109222	-0.505239	0	0	-0.161073	-0.0245283	-0.141083	0.316469	-0.176078	0	0	-0.156645	-0.066855	-0.0407968	0.40707	-0.233637	0.299167	1.19508	0.934226	0	0	-0.0720989	-0.390963	0.197955	1.80292	1.5708	0	0
70.02	2.98381	1.47978	-1.36326	0.560272	1.43837	1.0844	-0.0912176	-0.0266776	-0.0902921	0.106904	-0.507913	0	0	-0.161707	-0.0251292	-0.140145	0.316166	-0.175783	0	0	-0.15732	-0.0669983	-0.0400172	0.395794	-0.242832	0.306402	1.20828	0.911831	0	0	-0.0833079	-0.393011	0.20024	1.80731	1.5708	0	0
70.03	3.05091	1.48702	-1.43003	0.560459	1.43896	1.08279	-0.0294887	-0.0329406	0.00167043	0.265961	-0.371025	0	0	-0.15498	-0.0172182	-0.138726	0.318258	-0.172643	0	0	-0.149633	-0.074918	-0.0379766	0.38109	-0.252116	0.315822	1.22607	0.869981	0	0	-0.0949451	-0.395913	0.203171	1.81035	1.5708	0	0
70.04	3.03107	1.42799	-1.34605	0.555619	1.43095	1.08863	-0.155971	-0.0109148	-0.169708	0.091358	-0.521599	0	0	-0.190938	-0.0408851	-0.0512471	0.346015	-0.156996	0	0	-0.242683	-0.0517051	-0.109669	0.420562	-0.24805	0.344344	1.2294	0.822578	0	0	-0.080945	-0.407085	0.186144	1.82732	1.5708	0	0
70.05	3.03052	1.45112	-1.34336	0.555891	1.43299	1.08752	-0.134158	-0.0153848	-0.169499	0.0896926	-0.52552	0	0	-0.168175	-0.0350291	-0.0421898	0.342737	-0.161505	0	0	-0.235854	-0.0857697	-0.0834006	0.128453	-0.281785	0.0923432	1.54546	0.80643	0	0	-0.0685383	-0.409619	0.21794	1.8341	1.5708	0	0
70.06	3.032	1.45165	-1.3417	0.555825	1.43349	1.08742	-0.135664	-0.0148734	-0.173375	0.0875574	-0.525399	0	0	-0.167598	-0.0354478	-0.0394319	0.343193	-0.16117	0	0	-0.238195	-0.0851739	-0.0825132	0.111486	-0.286012	0.0881945	1.55508	0.806257	0	0	-0.0753398	-0.410023	0.221452	1.82666	1.5708	0	0
70.07	3.03068	1.45187	-1.33903	0.555948	1.43387	1.08737	-0.136633	-0.0141747	-0.174724	0.0862419	-0.525471	0	0	-0.167495	-0.036069	-0.0386813	0.343376	-0.16079	0	0	-0.241637	-0.0842947	-0.0791529	0.0958906	-0.288685	0.083597	1.55883	0.805682	0	0	-0.0796336	-0.409657	0.225812	1.81535	1.5708	0	0
70.08	3.07963	1.44017	-1.38537	0.555511	1.43351	1.08661	-0.0969715	-0.0227118	-0.0921057	0.241018	-0.382539	0	0	-0.179962	-0.0328151	-0.0417132	0.348382	-0.153548	0	0	-0.236957	-0.060008	-0.103913	0.357002	-0.263459	0.327302	1.25168	0.791643	0	0	-0.106998	-0.407938	0.203771	1.78769	1.5708	0	0
70.09	3.06404	1.46827	-1.37355	0.556199	1.43571	1.08482	-0.0676937	-0.0254717	-0.0786047	0.241645	-0.380065	0	0	-0.151706	-0.0282017	-0.0413213	0.347098	-0.156257	0	0	-0.226659	-0.0905331	-0.0643604	0.0563751	-0.286377	0.063242	1.5545	0.782553	0	0	-0.0848483	-0.408243	0.242117	1.77615	1.5708	0	0
70.1	3.06272	1.46806	-1.3709	0.556251	1.43601	1.08481	-0.0697145	-0.024613	-0.0779806	0.238808	-0.380124	0	0	-0.151878	-0.0288991	-0.0410901	0.347586	-0.155926	0	0	-0.23011	-0.0887729	-0.0630069	0.0472661	-0.281592	0.0583295	1.54193	0.784056	0	0	-0.0876377	-0.405655	0.243306	1.75301	1.5708	0	0
70.11	3.062	1.46688	-1.36836	0.556284	1.43623	1.08489	-0.072229	-0.0238638	-0.0798205	0.237166	-0.380396	0	0	-0.152986	-0.029824	-0.0404082	0.347947	-0.155556	0	0	-0.234126	-0.0865048	-0.0620674	0.0410044	-0.273812	0.0518531	1.52192	0.786457	0	0	-0.0888685	-0.403046	0.244494	1.7256	1.5708	0	0
70.12	3.06743	1.43868	-1.36595	0.55534	1.43445	1.08655	-0.105272	-0.0181522	-0.0933545	0.229716	-0.385513	0	0	-0.180127	-0.0369146	-0.0381643	0.351844	-0.150418	0	0	-0.25076	-0.0508586	-0.0947163	0.308798	-0.245556	0.275062	1.17807	0.795659	0	0	-0.106515	-0.396938	0.219839	1.68236	1.5708	0	0
70.13	3.06453	1.46411	-1.3666	0.556434	1.43647	1.0851	-0.0772054	-0.022577	-0.0848614	0.234989	-0.381331	0	0	-0.15542	-0.031467	-0.0368209	0.348589	-0.154966	0	0	-0.238837	-0.082065	-0.0685982	0.0443091	-0.248488	0.0440457	1.45152	0.812433	0	0	-0.0959697	-0.396281	0.237332	1.65942	1.5708	0	0
70.14	3.07196	1.43571	-1.36623	0.55549	1.43456	1.08672	-0.110032	-0.0170636	-0.097595	0.228502	-0.385038	0	0	-0.182702	-0.0382867	-0.0342166	0.352654	-0.149711	0	0	-0.262983	-0.0461517	-0.0810341	0.282569	-0.221622	0.207715	1.11213	0.836003	0	0	-0.0887314	-0.390428	0.239968	1.60421	1.5708	0	0
70.15	3.0731	1.46086	-1.37145	0.556648	1.43666	1.08526	-0.0826552	-0.0217968	-0.0878553	0.233016	-0.380817	0	0	-0.158985	-0.0324279	-0.0339995	0.348456	-0.15473	0	0	-0.242504	-0.0762323	-0.0595972	0.0408843	-0.210362	0.00564981	1.36462	0.866164	0	0	-0.0819407	-0.388763	0.252424	1.56895	1.5708	0	0
70.16	3.077	1.45788	-1.37392	0.556795	1.43669	1.0854	-0.0869821	-0.0209281	-0.0882074	0.231389	-0.380548	0	0	-0.162355	-0.033294	-0.033967	0.348259	-0.154352	0	0	-0.24446	-0.0707585	-0.0495952	0.0394857	-0.188752	-0.0284228	1.31547	0.884201	0	0	-0.0655866	-0.384442	0.268956	1.51269	1.5708	0	0
